<?xml version="1.0" encoding="UTF-8"?>
<svg version="1.1" viewBox="0 0 686 126" xmlns="http://www.w3.org/2000/svg">
<defs>
<linearGradient id="b" x1="35.45%" x2="85.785%" y1="61.194%" y2="25.604%">
<stop stop-color="#EF5366" offset="0"/>
<stop stop-color="#D71E23" offset="1"/>
</linearGradient>
<linearGradient id="a" x1="14.215%" x2="58.835%" y1="74.717%" y2="41.74%">
<stop stop-color="#D71E23" offset="0"/>
<stop stop-color="#EF5366" offset="1"/>
</linearGradient>
</defs>
<g fill="none" fill-rule="evenodd">
<polygon id="Rectangle-Copy-4" transform="translate(28.684 33.906) scale(-1) translate(-28.684 -33.906)" points="1.0191e-13 34.785 57.369 0 57.369 31.298 1.0191e-13 67.812" fill="url(#b)"/>
<polygon id="Rectangle-Copy-4" transform="translate(28.684 70.073) scale(1 -1) translate(-28.684 -70.073)" points="1.0191e-13 70.952 57.369 36.167 57.369 67.465 1.0191e-13 103.98" fill="#EF5366"/>
<polygon id="c" transform="translate(82.161 55.927) scale(-1 1) translate(-82.161 -55.927)" points="53.477 56.806 110.85 22.021 110.85 53.319 53.477 89.833" fill="url(#a)"/>
<polygon points="53.477 92.973 110.85 58.188 110.85 89.486 53.477 126" fill="#EF5366"/>
<path d="m134.59 79.131h17.114c0.23284 5.0339 4.3075 9.4958 11.991 9.4958 6.8687 0 11.642-3.2034 11.758-8.3517 0.11642-3.5466-1.5134-6.6356-9.6628-8.9237l-9.6628-2.6314c-17.696-5.3771-20.723-15.559-20.723-22.653 0-14.072 12.224-23.568 27.591-23.568 15.484 0 27.126 9.0381 27.126 24.14h-16.997c0-5.2627-3.609-8.9237-10.361-8.9237-5.9374 0-10.361 3.2034-10.361 7.8941 0 2.0593 0.81493 5.8347 8.615 8.0085l9.5464 2.9746c19.442 5.4915 22.236 16.246 22.003 23.797-0.23284 15.674-14.669 23.11-28.872 23.11-17.463 0-29.105-10.182-29.105-24.369zm72.225-55.716h19.934v78.826h-16.997v-69.97l-2.9365-8.8562zm85.665 50.797 23.982-50.797h14.32l9.7792 78.826h-17.114l-5.5881-47.25-18.743 38.212h-13.155l-18.86-38.212-5.7045 47.25h-17.114l8.7807-69.945-3.2905-8.8809h18.492l24.215 50.797zm65.615 28.03v-69.284l-3.1264-9.5419h53.303v14.758h-33.063v17.962h26.194v14.644h-26.194v31.462h-17.114zm77.373-39.242c0 13.157 10.361 23.797 23.633 23.797 13.272 0 23.749-10.64 23.749-23.797s-10.478-23.911-23.749-23.911c-13.272 0-23.633 10.754-23.633 23.911zm-16.997 0c0-22.424 17.929-40.5 40.63-40.5 22.818 0 40.747 18.076 40.747 40.5 0 22.195-17.929 40.386-40.747 40.386-22.702 0-40.63-18.191-40.63-40.386zm130.69-24.826h-14.902v22.195h14.436c6.6359 0 10.128-5.9492 10.128-11.097 0-4.9195-3.2597-11.097-9.6628-11.097zm7.4508 36.153 21.944 27.915h-20.49l-19.965-27.229h-3.8418v27.229h-17.114v-69.687l-3.3412-9.1389h36.171c18.161 0 26.66 12.928 26.66 25.856 0 11.212-6.2866 22.195-20.024 25.055zm81.301-1.0297 23.982-50.797h14.32l9.7792 78.826h-17.114l-5.5881-47.25-18.743 38.212h-13.155l-18.86-38.212-5.7045 47.25h-17.114l8.7807-69.945-3.2905-8.8809h18.492l24.215 50.797z" fill="#EF5366" fill-rule="nonzero"/>
</g>
</svg>
