<?xml version="1.0" standalone="no"?>
<!DOCTYPE svg PUBLIC "-//W3C//DTD SVG 20010904//EN"
 "http://www.w3.org/TR/2001/REC-SVG-20010904/DTD/svg10.dtd">
<svg version="1.0" xmlns="http://www.w3.org/2000/svg"
 width="792.000000pt" height="792.000000pt" viewBox="0 0 792.000000 792.000000"
 preserveAspectRatio="xMidYMid meet">
<metadata>
Created by potrace 1.14, written by Peter Selinger 2001-2017
</metadata>
<g transform="translate(0.000000,792.000000) scale(0.100000,-0.100000)"
fill="#000000" stroke="none">
<path d="M4019 7891 c-150 -97 -338 -214 -386 -241 -15 -8 -33 -19 -39 -25 -7
-5 -49 -32 -94 -60 -86 -52 -100 -61 -299 -187 -68 -43 -126 -78 -128 -78 -2
0 -9 -5 -16 -11 -7 -5 -100 -64 -207 -131 -107 -66 -217 -135 -245 -153 -27
-17 -93 -58 -145 -90 -52 -33 -96 -63 -98 -67 -2 -4 -9 -8 -17 -8 -7 0 -18 -7
-25 -15 -7 -8 -16 -12 -21 -9 -5 3 -9 0 -9 -5 0 -6 -7 -11 -15 -11 -8 0 -15
-3 -15 -8 0 -4 -9 -12 -20 -17 -11 -6 -77 -46 -147 -90 -70 -44 -132 -82 -137
-84 -6 -2 -13 -7 -16 -11 -3 -4 -52 -35 -110 -70 -58 -36 -106 -68 -108 -72
-2 -4 -10 -8 -17 -8 -8 0 -20 -6 -27 -13 -7 -7 -37 -26 -65 -43 -29 -16 -53
-32 -53 -36 0 -5 -4 -8 -9 -8 -6 0 -85 -47 -176 -105 -91 -58 -170 -105 -174
-105 -5 0 -11 -3 -13 -8 -1 -4 -57 -41 -123 -81 -66 -41 -150 -94 -187 -118
-37 -24 -70 -43 -73 -43 -3 0 -11 -5 -18 -11 -26 -23 -363 -229 -374 -229 -10
0 -13 -214 -13 -1034 l0 -1034 50 -31 c28 -17 55 -31 60 -31 6 0 10 -4 10 -10
0 -5 7 -10 15 -10 8 0 15 -3 15 -7 0 -5 10 -13 23 -19 68 -33 107 -57 107 -67
0 -6 3 -8 6 -4 3 3 47 -20 97 -50 51 -31 101 -61 112 -67 38 -21 270 -160 275
-166 3 -3 25 -16 50 -29 25 -13 61 -33 80 -46 40 -25 354 -214 385 -231 22
-12 90 -52 120 -72 11 -6 27 -15 35 -19 8 -3 29 -16 45 -28 17 -12 44 -28 60
-37 17 -8 155 -90 308 -181 153 -92 282 -167 287 -167 4 0 10 -3 12 -8 2 -6
104 -69 173 -108 11 -6 34 -19 51 -30 17 -10 60 -36 95 -57 35 -21 73 -43 84
-50 11 -7 43 -27 72 -44 30 -18 55 -33 58 -33 2 0 47 -27 100 -60 53 -33 98
-60 99 -60 2 0 43 -25 92 -55 49 -30 96 -58 104 -62 8 -4 42 -24 76 -45 34
-21 66 -38 72 -38 6 0 12 -4 14 -8 2 -5 33 -26 70 -46 37 -21 70 -42 74 -47 3
-5 9 -7 14 -4 4 3 10 -1 13 -8 2 -6 4 -353 3 -769 -1 -550 2 -758 10 -758 6 0
26 10 45 23 19 12 75 47 124 77 50 30 92 57 95 60 11 12 142 90 151 90 5 0 9
5 9 10 0 6 7 10 15 10 8 0 15 5 15 10 0 6 4 10 9 10 8 0 327 195 356 218 26
20 147 92 155 92 4 0 10 4 12 8 2 4 55 39 118 77 63 38 117 72 120 76 3 3 37
25 75 48 39 23 107 66 152 94 150 94 348 218 367 230 11 7 52 32 91 57 38 25
79 50 90 57 75 46 123 75 139 86 11 7 54 33 95 60 42 26 85 54 96 62 10 8 25
15 31 15 7 0 14 4 16 8 2 6 257 168 325 207 10 6 43 27 74 47 31 21 61 38 68
38 6 0 11 4 11 9 0 5 14 14 30 21 17 7 30 16 30 20 0 4 8 11 18 14 20 7 45 22
98 57 22 14 89 57 149 94 105 66 135 85 270 171 33 21 62 38 65 39 9 1 65 39
72 50 4 5 8 6 8 1 0 -5 8 -2 18 6 9 9 24 17 32 20 13 4 15 128 15 1034 1 914
-1 1030 -15 1040 -8 6 -31 21 -50 32 -19 11 -111 65 -203 121 -93 55 -173 101
-178 101 -5 0 -9 5 -9 10 0 6 -4 10 -9 10 -5 0 -46 23 -91 50 -45 28 -86 50
-91 50 -5 0 -9 5 -9 10 0 6 -4 10 -9 10 -6 0 -73 38 -151 85 -78 47 -145 85
-151 85 -5 0 -9 3 -9 8 0 4 -8 12 -19 17 -29 15 -113 63 -146 84 -69 41 -567
338 -645 384 -47 27 -108 65 -137 83 -28 19 -53 34 -56 34 -2 0 -86 50 -187
110 -100 61 -186 110 -191 110 -5 0 -9 5 -9 10 0 6 -4 10 -9 10 -12 0 -185
103 -189 112 -2 5 -8 8 -13 8 -5 0 -123 68 -262 151 -138 84 -268 161 -287
172 -19 10 -38 24 -42 31 -4 6 -8 8 -8 4 0 -4 -37 16 -82 44 -46 28 -100 60
-120 71 -20 11 -38 27 -40 36 -2 9 -3 355 -3 769 1 413 1 752 0 752 -1 0 -21
-13 -46 -29z m-203 -2758 l-1 -558 78 -52 c44 -29 81 -53 83 -53 3 0 37 -21
77 -47 40 -27 81 -54 92 -61 11 -7 32 -18 48 -25 15 -6 27 -15 27 -19 0 -5 10
-13 23 -18 26 -12 28 -13 333 -205 132 -82 241 -152 244 -156 3 -3 15 -9 28
-13 12 -4 22 -11 22 -16 0 -4 8 -10 18 -14 17 -6 53 -27 62 -36 3 -3 27 -19
54 -35 28 -17 66 -40 85 -52 20 -12 50 -30 66 -39 17 -9 32 -20 35 -23 5 -6
39 -28 209 -130 31 -19 58 -37 61 -40 6 -7 28 -21 103 -63 31 -18 57 -36 57
-40 0 -5 4 -8 10 -8 8 0 81 -44 187 -114 35 -23 42 -36 18 -36 -8 0 -15 -4
-15 -10 0 -5 -5 -10 -10 -10 -10 0 -37 -16 -136 -77 -10 -7 -46 -28 -79 -48
-33 -19 -69 -41 -80 -48 -118 -71 -146 -87 -154 -87 -5 0 -11 -3 -13 -7 -1 -5
-23 -19 -48 -32 -25 -14 -47 -27 -50 -31 -3 -3 -34 -23 -70 -43 -36 -20 -83
-48 -105 -62 -22 -14 -49 -29 -60 -35 -11 -6 -33 -19 -50 -30 -16 -11 -42 -26
-57 -32 -16 -7 -28 -16 -28 -20 0 -4 -4 -8 -8 -8 -7 0 -210 -117 -238 -137 -5
-5 -19 -13 -30 -19 -29 -17 -337 -200 -437 -261 -49 -29 -92 -53 -95 -53 -4 0
-7 253 -7 562 l0 562 -85 53 c-81 50 -172 106 -208 128 -10 6 -44 28 -77 50
-33 21 -69 44 -80 50 -39 22 -69 40 -79 48 -6 5 -90 57 -186 117 -96 60 -180
114 -187 120 -7 5 -14 10 -16 10 -6 0 -288 176 -304 190 -7 5 -14 10 -17 10
-2 0 -61 36 -131 80 -70 44 -131 80 -136 80 -5 0 -9 4 -9 8 0 5 -12 15 -27 23
-16 8 -90 53 -166 102 -76 48 -140 87 -142 87 -2 0 -30 17 -62 38 -32 21 -73
47 -92 59 l-33 20 177 107 c97 58 181 106 186 106 5 0 9 5 9 10 0 6 4 10 9 10
8 0 101 53 141 80 8 6 69 42 135 80 66 38 127 74 135 80 8 6 25 16 37 23 22
12 152 89 410 244 67 40 126 73 132 73 6 0 11 4 11 9 0 5 15 16 33 25 17 9 50
28 72 41 22 14 72 43 110 66 39 22 95 55 125 74 30 18 58 34 61 34 3 1 6 -250
5 -556z"/>
</g>
</svg>
